/* XPM */
static char * atomic_menu_xpm[] = {
"32 32 88 1",
" 	c None",
".	c #222222",
"+	c #1D1B21",
"@	c #1C1C21",
"#	c #171521",
"$	c #7E932E",
"%	c #E5FF3B",
"&	c #232322",
"*	c #515D28",
"=	c #C7E537",
"-	c #0E091F",
";	c #525E28",
">	c #100B1F",
",	c #DFFF3B",
"'	c #292D23",
")	c #DCFF3A",
"!	c #110C1F",
"~	c #1F1E22",
"{	c #141020",
"]	c #110D20",
"^	c #161320",
"/	c #212022",
"(	c #4E5C28",
"_	c #AAC333",
":	c #191721",
"<	c #1D1D21",
"[	c #91A530",
"}	c #CCEE38",
"|	c #DDFF3B",
"1	c #BFDD36",
"2	c #8B9A2F",
"3	c #AAC934",
"4	c #4B5927",
"5	c #B0CA35",
"6	c #76892D",
"7	c #282B23",
"8	c #1A1821",
"9	c #2E3324",
"0	c #4A5827",
"a	c #D1FD39",
"b	c #DDFF3A",
"c	c #A2B932",
"d	c #404926",
"e	c #DFFF3A",
"f	c #110C20",
"g	c #120E20",
"h	c #171621",
"i	c #00001C",
"j	c #71892D",
"k	c #E4FF3B",
"l	c #728A2D",
"m	c #1C1A21",
"n	c #A0B532",
"o	c #4C5928",
"p	c #232422",
"q	c #3B4225",
"r	c #B5D235",
"s	c #9FBE32",
"t	c #CDEF38",
"u	c #3D4626",
"v	c #363E25",
"w	c #130F20",
"x	c #181521",
"y	c #687C2B",
"z	c #636E2A",
"A	c #0F0A20",
"B	c #1C1B21",
"C	c #879F2F",
"D	c #A2C033",
"E	c #03001E",
"F	c #95AF31",
"G	c #D6FF39",
"H	c #6E792C",
"I	c #212122",
"J	c #4F5827",
"K	c #131020",
"L	c #AACA34",
"M	c #C1EA37",
"N	c #95B031",
"O	c #4D5A28",
"P	c #7C862E",
"Q	c #DBFF3A",
"R	c #CBF738",
"S	c #9BB632",
"T	c #C0EA37",
"U	c #535728",
"V	c #3C4426",
"W	c #414A26",
"                                ",
"            ........            ",
"          ............          ",
"        ................        ",
"      ........+@@+........      ",
"     ........#$%%$#........     ",
"    ........&*=--=;&........    ",
"    ........>,'&&')!........    ",
"   ....~{]^/(_:..:_(/^]{~....   ",
"   ...<[}|1234+&&+4321|}[<...   ",
"  ...:567890abcddcea098765:...  ",
"  ...f,g&.&heijkklieh&.&g,f...  ",
" ....mnop.&qrstuutsrq&.ponm.... ",
" ....&vew.xy)z]AA]z)yx.wev&.... ",
" .....BCDEFGHIJ))JIHGFEDCB..... ",
" ......KLMNOPAQRRQAPOSTLK...... ",
" ......KLTSOPAQRRQAPONMLK...... ",
" .....BCDEFGHIUQQUIHGFEDCB..... ",
" ....&vew.xy)z]AA]z)yx.wev&.... ",
" ....mnop.&qrstuutsrq&.ponm.... ",
"  ...f,g&.&heij%kjieh&.&g,f...  ",
"  ...:567890abcVWcba098765:...  ",
"   ...<[}|1234+&&+4321|}[<...   ",
"   ....~{]^/(_:..:_(/^]{~....   ",
"    ........!)'&&')!........    ",
"    ........&;=--=;&........    ",
"     ........#$%%$#........     ",
"      ........+@@+........      ",
"        ................        ",
"          ............          ",
"            ........            ",
"                                "};
